PathFileType	4	(X/Y/Z)	Kaydara	
DataRate	CameraRate	NumFrames	NumMarkers	Units	OrigDataRate	OrigDataStartFrame	OrigNumFrames	
240.00	240.00	4	72	mm	240.00	222	355	
Frame#	Time	Hips			RightUpLeg			RightLeg			RightFoot			RightFoot_End			LeftUpLeg			LeftLeg			LeftFoot			LeftFoot_End			Spine			Spine1			Spine2			Spine3			Neck			Head			Head_End			RightShoulder			RightArm			RightForeArm			RightHand			RightHandThumb1			RightHandThumb2			RightHandThumb3			RightHandThumb3_End			RightInHandIndex			RightHandIndex1			RightHandIndex2			RightHandIndex3			RightHandIndex3_End			RightInHandMiddle			RightHandMiddle1			RightHandMiddle2			RightHandMiddle3			RightHandMiddle3_End			RightInHandRing			RightHandRing1			RightHandRing2			RightHandRing3			RightHandRing3_End			RightInHandPinky			RightHandPinky1			RightHandPinky2			RightHandPinky3			RightHandPinky3_End			LeftShoulder			LeftArm			LeftForeArm			LeftHand			LeftHandThumb1			LeftHandThumb2			LeftHandThumb3			LeftHandThumb3_End			LeftInHandIndex			LeftHandIndex1			LeftHandIndex2			LeftHandIndex3			LeftHandIndex3_End			LeftInHandMiddle			LeftHandMiddle1			LeftHandMiddle2			LeftHandMiddle3			LeftHandMiddle3_End			LeftInHandRing			LeftHandRing1			LeftHandRing2			LeftHandRing3			LeftHandRing3_End			LeftInHandPinky			LeftHandPinky1			LeftHandPinky2			LeftHandPinky3			LeftHandPinky3_End			
		X1	Y1	Z1	X2	Y2	Z2	X3	Y3	Z3	X4	Y4	Z4	X5	Y5	Z5	X6	Y6	Z6	X7	Y7	Z7	X8	Y8	Z8	X9	Y9	Z9	X10	Y10	Z10	X11	Y11	Z11	X12	Y12	Z12	X13	Y13	Z13	X14	Y14	Z14	X15	Y15	Z15	X16	Y16	Z16	X17	Y17	Z17	X18	Y18	Z18	X19	Y19	Z19	X20	Y20	Z20	X21	Y21	Z21	X22	Y22	Z22	X23	Y23	Z23	X24	Y24	Z24	X25	Y25	Z25	X26	Y26	Z26	X27	Y27	Z27	X28	Y28	Z28	X29	Y29	Z29	X30	Y30	Z30	X31	Y31	Z31	X32	Y32	Z32	X33	Y33	Z33	X34	Y34	Z34	X35	Y35	Z35	X36	Y36	Z36	X37	Y37	Z37	X38	Y38	Z38	X39	Y39	Z39	X40	Y40	Z40	X41	Y41	Z41	X42	Y42	Z42	X43	Y43	Z43	X44	Y44	Z44	X45	Y45	Z45	X46	Y46	Z46	X47	Y47	Z47	X48	Y48	Z48	X49	Y49	Z49	X50	Y50	Z50	X51	Y51	Z51	X52	Y52	Z52	X53	Y53	Z53	X54	Y54	Z54	X55	Y55	Z55	X56	Y56	Z56	X57	Y57	Z57	X58	Y58	Z58	X59	Y59	Z59	X60	Y60	Z60	X61	Y61	Z61	X62	Y62	Z62	X63	Y63	Z63	X64	Y64	Z64	X65	Y65	Z65	X66	Y66	Z66	X67	Y67	Z67	X68	Y68	Z68	X69	Y69	Z69	X70	Y70	Z70	X71	Y71	Z71	X72	Y72	Z72	

222	0.921	5921.0129	906.651	56.2195	5954.245884510161	870.4355896310694	-19.02174359160834	5869.938150375174	465.4821445260462	-80.81422791405114	5943.137451996194	98.89043720965395	-184.85569283425008	5869.699782355612	19.352635709959635	-27.343952289004797	5895.7880398313455	914.2410964116236	143.25420936710861	5836.356018882649	511.6457038397385	241.76164888615492	5761.268895207865	78.56700089914173	282.95575450278693	5636.80952526011	-6.443078875275882	165.582635912775	5883.872690632848	1035.0987873358933	5.678997843579012	5833.32140513395	1104.8454775337552	-38.82327801405544	5775.026866537892	1171.9306249172762	-86.36736617685693	5710.978820183911	1226.482916017059	-133.77547155236113	5642.028975953466	1284.5380513936764	-183.90163929554961	5578.364862593219	1337.4042958174996	-228.4977484009764	5454.909368496933	1427.9132089267098	-271.50430554919615	5675.633973726024	1255.928313606627	-192.0432849179755	5703.833204544727	1225.2758561123053	-295.527935841672	5654.274514354998	1008.8175832227786	-275.6532303269672	5595.577868383153	915.9505029777126	-383.387872167022	5591.885711407602	930.7098563075891	-417.6608269406398	5565.188296895377	932.5464545799622	-433.1969982075591	5546.095023210459	930.8663429676392	-441.5107778437657	5529.749030809301	926.9342550051916	-446.29812991703534	5591.861182306001	921.9878873187874	-413.4703583372055	5575.179105730892	917.9368804092845	-443.0182405943701	5552.294757572173	912.2785586034075	-454.78320683704237	5533.58128760531	909.9271436605563	-457.0167768225017	5515.066018751276	908.7676215926559	-455.4384078550026	5590.542725958472	913.9456053979912	-405.20890392570266	5573.561592768185	905.6451077760473	-429.56290449461454	5548.4562780609685	898.4191867301649	-441.2039098694669	5525.81487731519	895.0776779545847	-443.3242520878627	5505.524565657366	893.5636397331377	-441.3179991647851	5590.144830025262	908.3757847318475	-398.69700164861945	5574.896607643194	896.1272695832392	-415.1008786066092	5552.903390377148	888.7673058531719	-423.98460292707614	5531.004830864049	884.9802687471625	-425.3593071994969	5511.898797437012	883.2894789114026	-423.1551654644419	5589.319588919485	902.0052553349079	-389.7146544504624	5575.18190072532	886.8713977057213	-399.4966647794555	5557.462554167029	879.3745959032503	-404.56847430733603	5541.437413324306	875.836786432273	-404.5834291722231	5524.482510539184	873.892697047719	-402.0624515578424	5654.333816430236	1275.5852547249242	-141.22039324172587	5633.832529024209	1265.2508625610471	-29.860096868782623	5654.554334650075	1048.956108932148	-143.38366542205648	5630.199292298827	882.7279566457394	-234.66279368834017	5598.224783072963	892.7744207452245	-250.18902282340642	5583.5478152961205	881.7545028794001	-272.34130760664937	5575.715298978984	870.8694600199428	-285.72120727709364	5571.228991937706	859.0483440077353	-295.1243327715568	5602.353887270496	883.3762879803983	-243.14492312237184	5575.151864639524	867.304323728892	-253.4138054421502	5564.231613060234	849.7641011996175	-266.60029414373116	5562.0041344223555	839.2332740871794	-278.98449022051125	5563.23742243836	830.7691301082258	-292.05858175978955	5610.177792160625	874.9008152709122	-237.50722457929675	5587.875425560912	854.642129309833	-244.47202898978935	5577.08984263344	834.4281318378761	-258.0914616721422	5574.94502236951	821.2076349761508	-272.6632199552629	5576.558220248341	811.6957549389671	-286.78910811758993	5616.328404099398	869.3633733001527	-233.18947380371276	5601.472100971005	846.5186944603108	-235.47059133214356	5593.26285437159	827.8337131911803	-246.54451076324958	5591.8267756661	814.515183107334	-260.1769758507283	5593.64344938622	805.3032587396458	-273.25835138035495	5624.765717718709	863.1289387936636	-228.4880079068376	5616.093722640827	838.4626296416328	-227.4412650520626	5611.444260938365	821.936032830706	-235.05629787466407	5611.327581575573	811.4647087971673	-244.39397368751264	5613.472544800354	802.86893355139	-255.63324059786794
223	0.925	5921.0129	906.651	56.2195	5953.321551703199	870.0500064637331	-19.401112880590084	5869.190061976454	464.9694163122285	-80.66330655428561	5943.407951975507	98.6741801334437	-185.2165641606981	5869.946854321468	19.023322483529768	-27.773187056639586	5896.683164101715	914.611240326721	143.61628222598537	5837.457490974771	512.0434220144563	242.3506416690204	5761.564178039026	79.02189717985344	282.87533781794104	5637.271515738878	-6.181831106401688	165.4618870963211	5884.026334253023	1035.1807059974751	5.772289268347889	5833.439213448177	1104.96099383049	-38.649676620632555	5775.0775544588705	1172.0677765020566	-86.0990068149868	5710.910183893633	1226.6113411697306	-133.38340823712002	5641.828053268108	1284.649863819727	-183.37583951223402	5578.041329098352	1337.4991801983385	-227.8433898585769	5454.444284300608	1427.9051813743301	-270.67637180610075	5675.205482779637	1255.7462077122104	-191.6615818192897	5702.829101281712	1224.3544710848134	-295.1620575752242	5651.0755710319345	1007.9549519143688	-272.4463477591363	5590.310164477192	911.2842255408862	-376.47519515312496	5585.9228876679435	924.9839162371874	-410.9153943898077	5558.8716035763155	926.169560241852	-425.8889766522172	5539.59753142552	924.0908836748076	-433.7221431767076	5523.156965456729	919.8733748474351	-438.0328405902661	5586.045763913673	916.3194332324475	-406.46782036421973	5568.8744838558905	911.1200485967307	-435.34979962100965	5545.77846884679	904.8847251105078	-446.40582369916706	5526.98858182816	902.3410338613344	-448.1878961196485	5508.447280686183	901.1346373126606	-446.22857252446386	5584.92897578899	908.4766184024598	-397.97627980914376	5567.579733952893	899.1638561144074	-421.5563949597652	5542.271805922887	891.3386331375816	-432.39529735036706	5519.551818814649	887.7797010038606	-433.95724513970896	5499.2396385989605	886.2214475859656	-431.5275088873642	5584.685066341458	903.0748997294572	-391.3205945346765	5569.237761556173	890.0588969205562	-406.9113094423492	5547.097520801251	882.2091900892688	-415.0679816390732	5525.138864687699	878.2297494131551	-415.88923440419217	5506.019712100582	876.5055932386232	-413.27988132720657	5584.059162915371	896.948136988537	-382.17779898620404	5569.858336168082	881.2531198836979	-391.1208240724601	5552.068274338537	873.4183889253048	-395.5703865248041	5536.022041867905	869.7664766995856	-395.1622776899051	5519.068606545935	867.8079299988257	-392.27119880243146	5654.467390571147	1276.0142947438546	-140.64491509563953	5634.953476326243	1266.9450984801053	-28.540294879701058	5652.987205886211	1049.089752434512	-139.93768624175766	5627.457030345515	879.7601601703327	-228.21326438639124	5594.917986536886	888.8919277745082	-243.15812069270186	5579.982792586849	877.4305801759182	-265.2104311892158	5572.086228587452	866.2749616958815	-278.58973033368744	5567.645575446107	854.2597908589395	-288.0514013141813	5599.410211544937	879.4899227726975	-236.27292465478502	5572.33036586436	862.3759565454606	-246.3045325226862	5561.495820374252	844.388351026002	-259.5138182036836	5559.218205556067	833.7826917030313	-271.97752244351574	5560.340236056771	825.393745233361	-285.16149345469717	5607.544802219685	871.1641077434804	-230.84014416037166	5585.5296532318525	849.9699550291534	-237.68430495562973	5574.8781915404725	829.2912475088175	-251.35665656433304	5572.692365712595	815.9917334284041	-266.0377954883452	5574.193298575697	806.5676095759381	-280.2904538682956	5613.912570163434	865.7562023531735	-226.67171879774997	5599.504443728152	842.1774521698562	-228.9699401064376	5591.453132643143	823.1129256453916	-240.11885321761093	5589.999292491974	809.7317183717608	-253.87215619002114	5591.720735290698	800.6087240453282	-267.07999292267897	5622.5905290798055	859.723206977793	-222.1610814882284	5614.480593366536	834.4981109219802	-221.24254760712884	5610.019659568927	817.71058949109	-228.96260866949197	5609.920044877268	807.2143495573846	-238.41018057248078	5611.9979258565045	798.7093232298337	-249.77399264990427
224	0.929	5921.0129	906.651	56.2195	5952.397075978676	869.6681220582577	-19.76696428355519	5868.44936045329	464.46030822897853	-80.50554088116475	5943.660319152406	98.46019481100296	-185.5664773876962	5870.174496975424	18.69817922609851	-28.19114122056905	5897.576716526936	914.9774752188671	143.9653294581098	5838.568268040818	512.4391874693488	242.9400265472028	5761.870985238291	79.47937219399341	282.8136924586696	5637.747634362603	-5.918744749052658	165.35843116192444	5884.187701041665	1035.2634994235657	5.862980027033375	5833.56713603803	1105.0786109257078	-38.479059656786355	5775.140977069574	1172.2091589276222	-85.83329089999572	5710.857375830928	1226.74824646953	-132.99234839943816	5641.646106433944	1284.774761739554	-182.84906823802478	5577.739607766404	1337.6114039877418	-227.18621061986636	5454.002876860427	1427.917806754677	-269.8437993828436	5674.789036743476	1255.5756643507405	-191.27220059669114	5701.7920016617545	1223.4163072207866	-294.7353202986768	5647.924192416808	1007.0949426595248	-269.093541192329	5585.201887577881	906.5740408142177	-369.2846331405343	5580.126623358562	919.2005946247515	-403.83181145782976	5552.766446908567	919.7328579483998	-418.2138833072166	5533.345256593624	917.2544490832717	-425.5515587244453	5516.840212212707	912.750993140254	-429.37770059020227	5580.403110472984	910.5930429792691	-399.13804483018333	5562.784328669339	904.2309369877134	-427.3087148600726	5539.521169594604	897.4149923671366	-437.6371459854237	5520.685897821314	894.6809543349433	-438.9624688306451	5502.146511182204	893.432099738011	-436.62212218756156	5579.493689781547	902.9519177665609	-390.4329281194538	5561.820092205468	892.6141008260921	-413.2037965524899	5536.358770158082	884.1859741012244	-423.22258615087566	5513.597941268042	880.412113388151	-424.2209269844479	5493.294619740074	878.814558280521	-421.3681788843175	5579.40659545108	897.7201732922492	-383.646176749859	5563.8014838912895	883.9266582794015	-398.402767592426	5541.557702059331	875.5844452705559	-405.8191408252823	5519.575666426301	871.4152072716498	-406.0832155939181	5500.472432679026	869.662399396806	-403.06971120436583	5578.983134941753	891.8402550714002	-374.3597410564875	5564.7585066071815	875.576562003792	-382.4545461805483	5546.933278650144	867.4023205509588	-386.275169345667	5530.893089289713	863.638511927511	-385.44317269423436	5513.967047609929	861.6698600442166	-382.18402156157913	5654.624927038531	1276.4546662128398	-140.07694222315476	5636.121295645878	1268.6646524021057	-27.26327428228021	5651.511929205665	1049.2727136602384	-136.4407830603212	5624.901015231196	876.8646317149664	-221.67780861117149	5591.841172377348	885.0701547968865	-236.01176291959956	5576.65108186809	873.1654410126117	-257.9406049365163	5568.687990294508	861.7393719520195	-271.3080660987731	5564.286818570418	849.5315111415807	-280.82329775995777	5596.686546681126	875.6678334375821	-229.30181138473597	5569.74874429971	857.5080055674133	-239.09203904021405	5558.9965428473015	839.0738939869095	-252.3176201351335	5556.659635004121	828.3950024352894	-264.8509348394304	5557.658062184255	820.083289276346	-278.13264316313416	5605.117263243862	867.4959876898848	-224.08785482642128	5583.400838356528	845.3649347526597	-230.81489010715353	5572.877822182822	824.2230599600655	-244.53490976437135	5570.638980246373	810.846740131611	-259.3143728007999	5572.013671315631	801.5127366753511	-273.6809457456823	5611.691540768384	862.2207362076141	-220.07875384323705	5597.733091655237	837.9092561591735	-222.40611555108222	5589.832697934959	818.4671304572672	-233.62732370685865	5588.348411282342	805.0256985063991	-247.49179700143412	5589.960960230753	795.9940085200216	-260.81447999459795	5620.596140043336	856.3930998287548	-215.77003948386752	5613.041506076866	830.6127709571042	-214.99782662392266	5608.760241413759	813.5668158315904	-222.82363191780152	5608.666872094576	803.047899991493	-232.37544003320673	5610.664666004231	794.6359854526055	-243.85430925702786
225	0.933	5921.0129	906.651	56.2195	5951.473542361779	869.2903202024842	-20.11880569715377	5867.7165663782525	463.95543336337215	-80.34104874182435	5943.894558425812	98.24874314525434	-185.90492242118037	5870.38276413337	18.37770195233696	-28.597160932586235	5898.467622810352	915.3394531708655	144.30093076150183	5839.687028289869	512.8326300748581	243.52909412929247	5762.189117505971	79.93889056633418	282.77083849149085	5638.2375991370045	-5.654207468949291	165.27228481027598	5884.356715620538	1035.3469945017741	5.9507296831062755	5833.705143403273	1105.1981462634487	-38.3118269864053	5775.217197265743	1172.3546449073435	-85.57064061346904	5710.820634165847	1226.8936953257612	-132.60270287865154	5641.48357220239	1284.9130216278568	-182.32173040719394	5577.460334526154	1337.7414522158865	-226.52662125824386	5453.5860999031775	1427.9519102209006	-269.00718767087955	5674.3851647748525	1255.4172173816191	-190.87532408903357	5700.720731591446	1222.4608596631272	-294.24661439689083	5644.822803250013	1006.2381954540924	-265.5973768665244	5580.256898603781	901.828128282208	-361.82179612398784	5574.502135155903	913.3702820929974	-396.41395100168415	5546.879244977448	913.2478065732035	-410.17595791157805	5527.345289001794	910.369110783745	-417.00380798503636	5510.806281058476	905.5795800208211	-420.33819332396524	5574.937955026586	904.8189501187468	-391.4856346674586	5556.914176120901	897.2819533914392	-418.8997425749894	5533.529053212329	889.8826913744937	-428.4828052486014	5514.679963559273	886.9604244189825	-429.34684584016463	5496.170965568248	885.6734239855531	-426.626121273965	5574.241130420489	897.3812764577228	-382.58426701147056	5556.287458587863	886.0074866105078	-404.51111771708315	5530.722614664137	876.9737931431022	-413.69284785951965	5507.959302536233	872.9876929479711	-414.1232888987002	5487.696128899788	871.3556196253825	-410.8488063816271	5574.313324982512	892.3210030604243	-375.67973260160886	5558.591842337194	877.7413192147905	-389.58224061248444	5536.288504044656	868.9045821429298	-396.246104233531	5514.320362710038	864.5483016883351	-395.9502198074982	5495.2625973724835	862.7714160942264	-392.53440950004824	5574.094995480612	886.6904678140115	-366.2671594421639	5559.885785986751	869.8515237688933	-373.5058384858728	5542.061238279242	861.3366671690798	-376.69182647844065	5526.054582103307	857.4632188436179	-375.4358879743307	5509.182284205009	855.4886558947579	-371.8114357059163	5654.806622474194	1276.9062284651468	-139.5171071039621	5637.335787668908	1270.4084290526964	-26.03112454806943	5650.13276140723	1049.5056091200313	-132.8963855296616	5622.534083738323	874.0466574877679	-215.06579959648735	5588.999088036997	881.3165745784266	-228.75963143212968	5573.557868983059	868.9678688786466	-250.5404358065669	5565.525764049282	857.2722525182592	-263.8839447098279	5561.157630125676	844.8736002695852	-273.4469115980751	5594.186773924118	871.9172924477718	-222.24093539150022	5567.411002416501	852.7099272258455	-231.78472985736184	5556.737471731165	833.8312714898126	-245.01890382837735	5554.331947489227	823.081123667441	-257.6110651976749	5555.1943058900215	814.8487894320426	-270.97757122607345	5602.8981870523	863.9032649535885	-217.25936715904328	5581.491640834264	840.8357583791569	-223.87168657728805	5571.090939251881	819.2333743452338	-237.63277024126603	5568.786814275078	805.7828808868331	-252.49843546981236	5570.021128880729	796.5414661715134	-266.9651848205464	5609.667712397149	858.763406098901	-213.41937689979423	5596.159597558889	833.7219055257315	-215.78675075576876	5588.402588663979	813.9050255899849	-227.07633398820755	5586.874860680759	800.4061883511035	-241.0412601300116	5588.364674790001	791.468256494484	-254.46633411588897	5618.784218564927	853.1445176662806	-209.32342698589326	5611.776912550239	826.8134513822272	-208.71443760013045	5607.665866497069	809.5121530793502	-216.64566478243296	5607.567610302466	798.9730107897908	-226.29525423521477	5609.472104517277	790.6566078666838	-237.8789313956525
